<?xml version="1.0" standalone="no"?>
<!DOCTYPE svg PUBLIC "-//W3C//DTD SVG 20010904//EN"
 "http://www.w3.org/TR/2001/REC-SVG-20010904/DTD/svg10.dtd">
<svg version="1.0" xmlns="http://www.w3.org/2000/svg"
 width="1024.000000pt" height="1024.000000pt" viewBox="0 0 1024.000000 1024.000000"
 preserveAspectRatio="xMidYMid meet">

<g transform="translate(0.000000,1024.000000) scale(0.100000,-0.100000)"
fill="#000000" stroke="none">
<path d="M2583 8586 c-126 -41 -225 -159 -240 -285 l-6 -49 -246 -4 c-277 -3
-293 -7 -361 -84 -70 -80 -65 15 -65 -1254 l0 -1145 24 -48 c25 -52 68 -93
118 -114 25 -10 124 -13 464 -13 l431 0 -7 -27 c-69 -270 -89 -453 -82 -733 7
-255 16 -328 63 -520 46 -187 89 -301 180 -479 40 -79 71 -148 68 -153 -33
-53 -160 154 -262 427 -22 61 -43 118 -46 128 -5 15 -21 17 -155 17 l-150 0
-15 53 c-43 145 -193 210 -331 142 -59 -28 -96 -72 -119 -140 -10 -28 -24 -41
-67 -63 -58 -29 -93 -71 -109 -133 -7 -24 -9 -421 -8 -1151 l3 -1113 30 -53
c35 -64 93 -107 162 -122 31 -7 333 -10 878 -8 l830 3 52 29 c56 31 97 81 113
137 6 20 10 232 10 516 0 266 3 483 7 483 3 0 40 -20 82 -44 198 -116 396
-197 626 -256 236 -61 352 -74 630 -74 245 0 360 11 550 52 l80 17 3 319 c2
301 1 318 -15 311 -79 -33 -227 -79 -309 -96 -89 -18 -333 -41 -359 -34 -5 2
-74 6 -152 10 l-142 6 -16 -24 c-23 -36 -6 -73 42 -87 21 -6 128 -14 238 -17
214 -6 358 7 517 48 104 26 128 25 128 -4 0 -34 -28 -55 -88 -67 -84 -18 -101
-69 -35 -103 34 -18 25 -23 -83 -41 -395 -69 -764 -33 -1163 111 -192 69 -346
153 -518 282 -296 221 -567 559 -711 887 -190 430 -236 869 -141 1339 87 429
284 804 593 1123 347 358 758 574 1256 657 131 22 418 30 564 16 332 -33 696
-156 976 -331 196 -122 441 -336 572 -499 128 -159 258 -380 324 -551 53 -138
71 -203 109 -384 87 -416 58 -812 -88 -1204 l-32 -87 -272 -3 -272 -2 55 115
c60 127 115 299 142 439 13 70 17 143 16 316 0 195 -3 239 -23 330 -25 117
-98 343 -136 421 l-25 52 39 37 c84 82 108 248 53 365 -35 73 -118 166 -169
190 -21 10 -61 35 -88 56 -28 20 -64 43 -80 49 -66 26 -193 -16 -266 -86 l-36
-36 -74 50 c-179 120 -405 212 -633 259 -115 23 -155 26 -321 26 -216 1 -307
-14 -520 -83 -417 -136 -760 -423 -990 -830 -194 -342 -268 -773 -199 -1170
57 -334 236 -665 491 -911 131 -126 307 -250 448 -315 99 -46 292 -110 405
-135 278 -60 635 -36 907 63 78 28 83 32 83 59 0 33 5 34 40 14 14 -8 39 -14
56 -15 l31 0 6 -152 c4 -83 7 -417 7 -742 l0 -591 24 -50 c29 -62 76 -107 141
-137 l50 -23 975 -3 c1116 -3 1045 -8 1136 83 88 88 84 46 84 859 0 391 3 720
6 732 3 12 20 26 41 33 46 17 108 82 128 135 14 36 16 73 13 207 -3 146 -6
170 -27 217 -14 31 -42 69 -68 92 -78 69 -89 70 -520 70 -211 0 -383 2 -383 3
0 2 9 30 21 63 31 89 76 285 94 409 34 235 35 600 1 790 -34 192 -123 503
-172 597 -17 33 -16 33 61 42 186 23 430 149 579 301 126 127 232 319 272 490
29 121 27 369 -4 488 -31 123 -75 224 -143 328 l-58 89 53 50 c197 186 130
550 -124 672 -67 32 -169 52 -230 44 -45 -5 -45 -4 -75 42 -17 26 -48 57 -70
69 -39 22 -47 23 -335 22 -162 0 -315 -4 -339 -8 -55 -11 -90 -37 -119 -88
l-22 -41 -63 5 c-120 10 -242 -42 -337 -143 -62 -67 -90 -126 -110 -232 -23
-126 26 -271 121 -356 l48 -43 -40 -59 c-22 -32 -53 -84 -68 -114 -39 -76
-105 -266 -98 -283 3 -8 38 -33 79 -55 76 -42 88 -42 88 6 0 13 12 58 26 100
95 277 289 475 546 560 123 40 249 55 356 42 457 -58 798 -460 769 -908 -8
-122 -27 -193 -81 -307 -70 -148 -169 -262 -309 -357 -122 -83 -289 -138 -417
-138 l-65 0 -37 65 c-21 35 -38 66 -38 69 0 3 11 6 25 6 25 0 26 0 19 65 -8
76 10 115 51 115 35 0 48 -32 43 -108 l-4 -64 55 5 c189 19 397 157 504 335
114 188 137 372 73 577 -35 112 -88 198 -176 285 -89 88 -157 131 -277 174
-82 29 -97 31 -223 31 -125 0 -141 -2 -221 -31 -291 -104 -487 -388 -489 -706
0 -27 -2 -48 -5 -48 -3 0 -32 20 -66 45 -33 25 -119 77 -189 115 -294 161
-527 241 -842 289 -111 16 -113 17 -116 44 l-3 27 75 0 76 0 0 90 0 90 -430 0
-430 0 0 -90 0 -90 70 0 c70 0 70 0 70 -28 0 -27 -1 -28 -87 -40 -123 -17
-318 -65 -453 -113 -126 -45 -384 -166 -470 -222 l-55 -36 -5 522 c-5 512 -5
523 -27 563 -27 50 -75 97 -122 121 -31 16 -70 18 -297 21 l-261 3 -6 50 c-13
110 -90 214 -194 265 -64 32 -185 41 -250 20z m207 -172 c25 -16 55 -47 67
-69 20 -36 23 -54 23 -176 l0 -136 -190 -7 c-105 -3 -195 -4 -200 -1 -6 4 -10
63 -10 133 0 141 13 184 66 233 51 47 84 60 144 56 42 -2 67 -10 100 -33z
m4823 4 c14 -22 12 -25 -44 -80 -70 -67 -109 -143 -116 -229 l-6 -59 -142 0
-142 0 -6 57 c-8 78 -57 173 -124 240 -53 52 -54 55 -37 74 16 18 33 19 309
19 292 0 293 0 308 -22z m-748 -129 c52 -25 75 -45 113 -98 35 -49 41 -78 16
-88 -12 -4 -26 5 -44 27 l-27 34 -49 -32 c-27 -17 -69 -51 -94 -77 l-44 -45
-51 53 c-27 29 -63 62 -79 72 l-28 19 -28 -34 c-18 -22 -32 -31 -44 -27 -9 4
-16 11 -16 17 0 21 33 76 69 113 85 90 203 116 306 66z m1091 -4 c65 -29 120
-84 151 -152 45 -99 11 -138 -47 -53 -18 28 -38 54 -42 56 -5 3 -42 -27 -83
-67 l-75 -72 -37 38 c-59 59 -143 110 -182 110 -19 0 -36 5 -38 12 -6 17 64
90 114 120 82 48 146 50 239 8z m-5966 -174 c0 -5 -20 -14 -44 -20 -54 -13
-104 -54 -122 -98 -8 -18 -14 -68 -14 -114 0 -60 -3 -80 -12 -77 -17 6 -22
135 -8 187 14 52 41 85 92 110 43 21 108 29 108 12z m1557 -21 c42 -25 69 -80
77 -157 7 -68 -1 -163 -15 -163 -5 0 -9 44 -9 98 -1 142 -30 198 -121 226
l-44 14 40 1 c24 1 53 -7 72 -19z m-1207 -50 c0 -68 16 -108 56 -139 26 -20
38 -21 285 -21 179 0 266 4 284 12 39 18 65 76 65 148 l0 60 175 0 175 0 0
-25 c0 -21 5 -25 30 -25 38 0 77 -20 110 -55 23 -24 25 -36 28 -130 l4 -103
-114 -4 c-62 -3 -443 -5 -845 -7 l-733 -1 0 101 c0 94 2 105 25 135 34 45 58
56 130 63 53 5 60 9 63 29 3 22 6 22 133 22 l129 0 0 -60z m5010 -349 c16 -31
12 -117 -6 -135 -53 -54 -110 47 -72 129 14 31 62 35 78 6z m-3942 -171 c28
-26 29 -73 2 -100 -20 -20 -33 -20 -665 -20 l-645 0 0 -110 0 -110 644 0 c611
0 645 -1 667 -18 27 -23 30 -75 5 -100 -15 -16 -70 -17 -665 -20 l-648 -2 -5
-103 c-3 -56 -3 -108 -1 -114 4 -10 120 -13 536 -13 l531 0 23 -22 c28 -27 29
-57 3 -86 l-21 -22 -569 0 -570 0 -32 29 -33 29 0 370 c0 356 1 371 20 392 11
12 29 26 40 31 11 4 322 8 691 8 661 1 671 1 692 -19z m4316 -81 c18 -14 26
-30 26 -52 0 -28 -22 -54 -165 -200 -140 -143 -165 -173 -165 -199 0 -44 -56
-98 -103 -98 -40 0 -96 35 -114 70 -32 64 4 135 81 161 40 13 75 43 204 171
184 183 188 185 236 147z m-900 -400 c15 -22 11 -48 -8 -61 -6 -4 -37 -8 -68
-8 -59 0 -81 15 -71 50 3 8 6 21 8 28 3 8 25 12 64 12 50 0 62 -4 75 -21z
m1124 9 c7 -7 12 -21 12 -33 0 -34 -20 -45 -82 -45 -48 0 -59 3 -68 21 -9 16
-8 26 5 45 13 20 23 24 68 24 29 0 58 -5 65 -12z m-2808 -564 c65 -26 70 -45
70 -256 0 -161 -2 -187 -19 -214 -38 -63 -123 -69 -177 -13 l-29 30 -3 184
c-4 210 4 246 60 270 42 18 50 18 98 -1z m-2195 -10 c43 -17 36 -91 -12 -113
-16 -7 -153 -11 -428 -11 l-405 0 0 -110 0 -110 319 0 c307 0 319 -1 345 -21
31 -25 34 -61 6 -89 -19 -19 -33 -20 -381 -20 -239 0 -367 4 -381 11 -38 20
-48 68 -48 233 0 101 4 164 12 182 24 52 37 53 515 54 243 0 449 -3 458 -6z
m1525 -253 c14 -9 33 -34 44 -55 24 -50 15 -99 -29 -143 -27 -27 -41 -33 -74
-33 -87 0 -138 55 -128 138 11 102 107 150 187 93z m1399 -7 c17 -14 36 -43
42 -64 10 -33 9 -44 -9 -82 -25 -52 -66 -78 -119 -78 -68 0 -113 52 -113 131
0 35 6 48 39 80 34 34 45 39 84 39 34 0 53 -6 76 -26z m616 15 c59 -16 113
-57 143 -108 24 -40 27 -57 27 -131 0 -63 -5 -94 -19 -120 -10 -19 -107 -125
-215 -235 -108 -110 -252 -258 -321 -330 -68 -71 -226 -233 -350 -360 -124
-126 -306 -315 -405 -418 -99 -104 -200 -201 -224 -215 -53 -31 -118 -34 -174
-8 -58 28 -646 624 -674 684 -89 188 118 409 309 329 37 -16 209 -172 355
-324 l83 -85 317 324 c621 633 948 960 978 975 59 32 110 38 170 22z m-2516
-514 c32 -16 61 -69 61 -112 0 -61 -66 -123 -132 -123 -37 0 -88 38 -104 77
-21 50 -10 99 31 140 27 27 41 33 74 33 23 0 55 -7 70 -15z m62 -713 c57 -51
50 -153 -13 -192 -30 -18 -51 -20 -206 -20 -196 0 -224 7 -248 65 -18 44 -18
69 2 111 28 58 48 63 251 64 l183 0 31 -28z m2577 12 c48 -34 66 -109 37 -163
-27 -53 -63 -61 -265 -61 l-182 0 -34 34 c-30 30 -34 40 -34 86 0 46 4 56 34
86 l34 34 194 0 c159 0 198 -3 216 -16z m-93 -411 c37 -18 45 -37 19 -47 -16
-6 -94 29 -94 43 0 25 27 27 75 4z m-2741 -8 c6 -17 -29 -45 -57 -45 -26 0
-34 30 -12 46 25 18 61 18 69 -1z m2727 -76 c34 -17 59 -32 57 -35 -7 -6 -127
49 -128 59 0 11 7 9 71 -24z m-2730 -3 c-18 -21 -91 -70 -96 -64 -3 3 18 23
47 45 52 40 73 48 49 19z m-81 0 c0 -20 -25 -37 -44 -30 -16 6 -21 25 -9 37
12 13 53 7 53 -7z m295 -209 c41 -41 51 -77 36 -127 -30 -101 -166 -118 -221
-27 -51 83 9 187 107 187 38 0 51 -6 78 -33z m2384 8 c90 -76 40 -215 -78
-215 -53 0 -84 18 -106 60 -59 115 86 237 184 155z m-4250 -30 c16 -8 33 -27
39 -42 6 -15 16 -109 22 -208 5 -99 13 -201 16 -227 16 -126 -124 -192 -214
-102 -34 34 -34 36 -28 97 3 34 8 143 12 242 4 138 10 186 22 207 27 46 80 60
131 33z m6079 -385 c17 -11 32 -24 32 -30 0 -6 -42 -10 -109 -10 -122 0 -141
-4 -141 -30 0 -31 28 -43 109 -45 43 -1 83 -5 90 -9 15 -10 14 -43 -1 -49 -7
-2 -95 -2 -196 1 -166 5 -184 3 -202 -13 -24 -22 -25 -38 -4 -59 13 -13 46
-16 210 -16 172 0 195 -2 201 -17 4 -10 -2 -23 -16 -35 -22 -17 -70 -18 -1173
-18 -1271 0 -1197 -4 -1233 63 -13 26 -16 51 -14 114 4 77 6 84 37 116 19 19
48 39 65 45 21 6 427 10 1172 11 1120 1 1141 1 1173 -19z m-3048 -25 c53 -27
60 -56 60 -244 l0 -171 -27 -30 c-53 -59 -153 -48 -188 20 -21 40 -22 325 -1
374 26 62 92 84 156 51z m-682 -9 c54 -29 78 -109 49 -166 -19 -38 -74 -70
-120 -70 -32 0 -46 7 -78 39 -43 43 -49 77 -25 135 28 67 111 97 174 62z
m3370 -470 c62 -32 87 -98 59 -152 -16 -31 -874 -907 -916 -936 -30 -21 -67
-22 -97 -5 -12 7 -114 107 -228 224 -179 184 -206 216 -206 243 0 68 61 130
128 130 27 0 49 -16 140 -99 59 -54 131 -123 160 -153 l53 -54 306 310 c515
524 496 506 538 506 20 0 48 -6 63 -14z m-5289 -23 c-13 -16 -58 -64 -99 -108
-42 -44 -97 -105 -123 -135 -45 -51 -49 -54 -59 -35 -6 10 -22 30 -34 42 -57
57 -166 3 -130 -65 23 -44 178 -192 201 -192 15 0 52 35 125 118 112 128 219
242 226 242 3 0 4 -93 2 -206 l-3 -206 -28 -24 -28 -24 -275 0 -276 0 -29 29
-29 29 0 255 0 254 25 27 24 26 267 0 267 0 -24 -27z m719 -132 c28 -33 52
-62 52 -65 0 -3 -109 -6 -243 -6 -203 0 -246 3 -265 16 -27 18 -30 69 -5 96
15 16 35 18 212 18 l197 0 52 -59z m2903 -83 c0 -10 2 -10 6 0 2 6 9 12 14 12
6 0 8 -4 4 -9 -3 -5 -1 -12 5 -16 7 -4 10 -212 10 -610 0 -587 1 -605 19 -615
13 -7 299 -10 858 -10 778 0 841 1 873 18 51 25 60 51 60 184 0 107 2 119 22
137 40 38 48 14 48 -151 0 -169 -10 -206 -62 -238 -32 -20 -48 -20 -937 -20
l-905 0 -23 22 -23 21 0 637 c0 350 3 640 7 643 10 11 23 8 24 -5z m-2721
-228 c25 -25 25 -51 1 -81 l-19 -24 -294 -3 c-331 -3 -341 -1 -346 59 -6 69
-8 69 334 69 291 0 305 -1 324 -20z m-887 -354 c-4 -8 -55 -65 -113 -128 -58
-62 -120 -131 -139 -153 -22 -26 -36 -35 -39 -26 -2 7 -18 28 -34 47 -49 56
-122 44 -142 -23 -5 -17 2 -32 30 -65 81 -93 159 -168 175 -168 9 0 38 26 65
58 89 105 276 302 286 302 6 0 9 -71 6 -201 l-3 -201 -33 -29 -32 -29 -269 0
-269 0 -31 29 -31 29 0 257 0 257 29 29 29 29 262 0 c221 0 260 -2 253 -14z
m871 -17 c17 -13 26 -30 26 -47 -1 -68 -18 -72 -334 -72 -180 0 -283 4 -299
11 -49 22 -55 92 -10 118 11 7 123 11 304 11 275 0 287 -1 313 -21z m8 -336
c26 -23 24 -78 -4 -97 -19 -14 -67 -16 -317 -16 -260 0 -297 2 -313 17 -22 20
-23 70 -1 95 15 17 38 18 316 18 266 0 303 -2 319 -17z"/>
<path d="M5012 8319 c-105 -20 -215 -96 -266 -182 -63 -108 -74 -269 -25 -372
l24 -50 353 -3 353 -2 21 46 c11 26 25 75 31 110 46 269 -212 508 -491 453z
m195 -194 c106 -53 159 -174 119 -270 l-15 -35 -216 0 -215 0 -12 28 c-31 73
-4 174 64 239 71 69 183 84 275 38z"/>
<path d="M4171 8216 c-30 -74 -96 -145 -170 -185 -34 -18 -61 -34 -61 -36 0
-2 24 -15 54 -28 72 -33 127 -85 159 -151 15 -30 27 -59 27 -65 0 -32 22 -11
53 52 42 85 72 116 157 161 l63 34 -58 28 c-90 42 -144 105 -191 222 -9 22
-11 20 -33 -32z"/>
<path d="M5948 8153 c-18 -37 -38 -56 -82 -82 l-58 -35 49 -21 c52 -23 99 -71
109 -111 3 -13 9 -24 13 -24 3 0 18 23 33 50 20 35 42 57 77 78 l49 28 -47 26
c-56 32 -75 52 -96 101 -8 20 -17 37 -19 37 -2 0 -14 -21 -28 -47z"/>
<path d="M4916 6949 c-21 -31 -20 -55 4 -79 19 -19 33 -20 199 -20 186 0 320
-16 491 -60 97 -25 122 -25 143 -2 42 47 4 81 -128 116 -196 50 -253 58 -476
63 l-216 5 -17 -23z"/>
<path d="M4595 6905 c-22 -7 -80 -25 -130 -40 -49 -15 -98 -34 -107 -43 -33
-28 -14 -102 26 -102 7 0 45 11 86 25 40 14 108 34 151 46 43 11 83 27 89 34
20 24 20 55 0 75 -23 23 -57 24 -115 5z"/>
<path d="M4067 6692 c-36 -39 -9 -112 41 -112 32 0 45 8 60 36 13 25 5 64 -16
82 -23 18 -66 15 -85 -6z"/>
<path d="M3794 6502 c-21 -16 -79 -71 -128 -123 -243 -255 -399 -507 -496
-799 -41 -121 -90 -338 -90 -394 0 -34 25 -66 51 -66 37 0 50 25 70 140 58
328 214 650 456 942 64 77 208 218 223 218 4 0 13 14 19 31 9 27 8 33 -14 55
-31 31 -43 30 -91 -4z"/>
<path d="M8065 6041 c-21 -47 -66 -92 -119 -118 l-39 -20 32 -11 c54 -19 87
-49 117 -107 16 -30 31 -55 34 -55 4 0 11 15 18 33 16 43 65 93 120 121 l44
23 -33 14 c-46 19 -106 75 -130 121 -11 21 -21 38 -23 38 -1 0 -11 -18 -21
-39z"/>
<path d="M6826 5898 c-22 -30 -21 -35 18 -119 44 -95 100 -258 132 -379 14
-53 33 -104 44 -114 23 -23 20 -26 48 44 l22 55 -24 90 c-63 234 -166 445
-218 445 -4 0 -14 -10 -22 -22z"/>
<path d="M8165 5618 c-3 -7 -12 -33 -20 -58 -43 -123 -129 -210 -259 -260 -47
-19 -86 -37 -86 -40 0 -4 32 -19 70 -34 151 -59 225 -139 292 -315 8 -22 13
-15 58 76 60 122 113 175 238 235 l84 41 -64 26 c-153 66 -238 151 -282 289
-18 54 -23 61 -31 40z"/>
<path d="M2061 5250 c-2 -30 -60 -139 -96 -179 -23 -25 -66 -55 -109 -75 l-71
-34 30 -12 c114 -43 189 -112 223 -203 11 -29 23 -52 27 -52 4 0 16 25 28 55
32 86 111 157 222 200 l30 12 -76 38 c-103 52 -138 95 -197 240 -6 14 -11 18
-11 10z"/>
<path d="M8050 4748 c-14 -35 -31 -52 -78 -82 l-44 -27 44 -22 c24 -13 54 -38
67 -60 22 -33 26 -36 34 -20 17 32 59 71 88 83 16 7 29 16 29 21 0 4 -17 18
-39 30 -21 12 -48 39 -60 60 -12 22 -24 39 -27 39 -2 0 -9 -10 -14 -22z"/>
<path d="M4392 3117 c-29 -30 -28 -62 3 -92 46 -46 115 -22 115 41 0 67 -73
99 -118 51z"/>
<path d="M5067 2263 c-4 -3 -7 -12 -7 -20 0 -31 -63 -143 -102 -182 -24 -23
-76 -58 -115 -78 -40 -20 -73 -39 -73 -43 0 -3 21 -14 48 -23 104 -38 194
-133 229 -243 9 -30 19 -54 23 -54 3 0 19 30 35 66 39 91 123 179 210 223 l67
34 -74 38 c-92 48 -150 110 -198 212 -20 42 -40 74 -43 70z"/>
<path d="M4228 2215 c-30 -59 -46 -74 -111 -107 l-48 -24 51 -23 c50 -23 101
-77 115 -122 9 -27 21 -23 35 12 18 43 66 88 117 110 24 10 43 21 43 24 0 2
-17 12 -37 20 -51 21 -101 71 -123 120 l-17 40 -25 -50z"/>
</g>
</svg>
